<svg id="hp_but_sltn" xmlns="http://www.w3.org/2000/svg" width="293" height="77.999" viewBox="0 0 293 77.999">
  <path id="Exclusion_2" data-name="Exclusion 2" d="M-601,78.5H-829a32.3,32.3,0,0,1-12.651-2.554,32.393,32.393,0,0,1-10.331-6.965,32.393,32.393,0,0,1-6.965-10.33A32.3,32.3,0,0,1-861.5,46V33a32.3,32.3,0,0,1,2.554-12.651,32.392,32.392,0,0,1,6.965-10.33,32.393,32.393,0,0,1,10.331-6.965A32.3,32.3,0,0,1-829,.5h228A32.3,32.3,0,0,1-588.35,3.054a32.392,32.392,0,0,1,10.33,6.965,32.39,32.39,0,0,1,6.965,10.33A32.3,32.3,0,0,1-568.5,33V46a32.3,32.3,0,0,1-2.554,12.651,32.39,32.39,0,0,1-6.965,10.33,32.392,32.392,0,0,1-10.33,6.965A32.3,32.3,0,0,1-601,78.5ZM-807.4,13c-15.607,0-28.3,11.9-28.3,26.524s12.7,26.524,28.3,26.524,28.3-11.9,28.3-26.524S-791.8,13-807.4,13Zm0,45.975a21.343,21.343,0,0,1-14.677-5.7,18.729,18.729,0,0,1-6.08-13.754,18.729,18.729,0,0,1,6.08-13.754,21.343,21.343,0,0,1,14.677-5.7,21.343,21.343,0,0,1,14.677,5.7,18.728,18.728,0,0,1,6.08,13.754,18.728,18.728,0,0,1-6.08,13.754A21.343,21.343,0,0,1-807.4,58.974Zm-6.978-23a3.517,3.517,0,0,0-2.5,1.036,3.515,3.515,0,0,0-1.036,2.5,3.515,3.515,0,0,0,1.036,2.5l5.306,5.3a3.513,3.513,0,0,0,2.5,1.038,3.513,3.513,0,0,0,2.5-1.038l10.609-10.609a3.514,3.514,0,0,0,1.037-2.5,3.514,3.514,0,0,0-1.037-2.5,3.514,3.514,0,0,0-2.5-1.037,3.514,3.514,0,0,0-2.5,1.037l.018.018-8.116,8.1-2.812-2.812A3.517,3.517,0,0,0-814.382,35.976Z" transform="translate(861.5 -0.5)" fill="rgba(240,114,41,0.95)"/>
</svg>
