<svg id="hp_but_prblm" xmlns="http://www.w3.org/2000/svg" width="293" height="77.999" viewBox="0 0 293 77.999">
  <path id="Exclusion_3" data-name="Exclusion 3" d="M-601,78.5H-829a32.3,32.3,0,0,1-12.651-2.554,32.393,32.393,0,0,1-10.331-6.965,32.393,32.393,0,0,1-6.965-10.33A32.3,32.3,0,0,1-861.5,46V33a32.3,32.3,0,0,1,2.554-12.651,32.392,32.392,0,0,1,6.965-10.33,32.393,32.393,0,0,1,10.331-6.965A32.3,32.3,0,0,1-829,.5h228A32.3,32.3,0,0,1-588.35,3.054a32.392,32.392,0,0,1,10.33,6.965,32.39,32.39,0,0,1,6.965,10.33A32.3,32.3,0,0,1-568.5,33V46a32.3,32.3,0,0,1-2.554,12.651,32.39,32.39,0,0,1-6.965,10.33,32.392,32.392,0,0,1-10.33,6.965A32.3,32.3,0,0,1-601,78.5ZM-805.437,13.448l-.3,0a17.818,17.818,0,0,0-14.99,8.76,17.531,17.531,0,0,0,2.308,20.6l-8.559,14.659a5.314,5.314,0,0,0,1.906,7.26,5.268,5.268,0,0,0,2.653.715,5.342,5.342,0,0,0,4.608-2.622l8.559-14.659a18.343,18.343,0,0,0,3.965.435,17.269,17.269,0,0,0,15.108-8.551,17.708,17.708,0,0,0-6.356-24.193,17.529,17.529,0,0,0-6.638-2.259A18,18,0,0,0-805.437,13.448Zm-16.925,48.484a1.828,1.828,0,0,1-.918-.256,1.767,1.767,0,0,1-.836-1.073,1.765,1.765,0,0,1,.2-1.345l9.844-16.877-1.03-.96a14.269,14.269,0,0,1-4.326-8.183A13.9,13.9,0,0,1-817.671,24a14.207,14.207,0,0,1,5.17-5.151,14.169,14.169,0,0,1,6.808-1.881l.231,0a14.272,14.272,0,0,1,1.821.119,14.137,14.137,0,0,1,5.326,1.824,14.061,14.061,0,0,1,6.561,8.622,14.067,14.067,0,0,1-1.476,10.734,14.039,14.039,0,0,1-5.258,5.175,14.206,14.206,0,0,1-6.922,1.8,14.216,14.216,0,0,1-4.261-.653l-1.34-.422-9.851,16.877A1.736,1.736,0,0,1-822.362,61.932Zm15.155-40.952h-.053a1.756,1.756,0,0,0-.518.1,12.4,12.4,0,0,0-7.509,6.791,1.757,1.757,0,0,0-.029,1.354,1.759,1.759,0,0,0,.937.978,1.757,1.757,0,0,0,.71.149,1.772,1.772,0,0,0,1.622-1.058,8.847,8.847,0,0,1,5.36-4.849,1.761,1.761,0,0,0,1.244-1.538,1.763,1.763,0,0,0-.96-1.73A1.776,1.776,0,0,0-807.207,20.98Z" transform="translate(861.5 -0.5)" fill="rgba(240,114,41,0.95)"/>
</svg>
