<svg id="hp_but_rate" xmlns="http://www.w3.org/2000/svg" width="293" height="77.999" viewBox="0 0 293 77.999">
  <path id="Exclusion_1" data-name="Exclusion 1" d="M-601,78.5H-829a32.3,32.3,0,0,1-12.651-2.554,32.393,32.393,0,0,1-10.331-6.965,32.393,32.393,0,0,1-6.965-10.33A32.3,32.3,0,0,1-861.5,46V33a32.3,32.3,0,0,1,2.554-12.651,32.392,32.392,0,0,1,6.965-10.33,32.393,32.393,0,0,1,10.331-6.965A32.3,32.3,0,0,1-829,.5h228A32.3,32.3,0,0,1-588.35,3.054a32.392,32.392,0,0,1,10.33,6.965,32.39,32.39,0,0,1,6.965,10.33A32.3,32.3,0,0,1-568.5,33V46a32.3,32.3,0,0,1-2.554,12.651,32.39,32.39,0,0,1-6.965,10.33,32.392,32.392,0,0,1-10.33,6.965A32.3,32.3,0,0,1-601,78.5ZM-827.215,30.108a8.5,8.5,0,0,0-8.492,8.492V58.415a8.5,8.5,0,0,0,8.492,8.492h36.033a8.492,8.492,0,0,0,8.351-6.964l3.595-19.814a8.471,8.471,0,0,0-1.84-6.963,8.471,8.471,0,0,0-6.511-3.057h-12.908l1.585-4.047a11.693,11.693,0,0,0-1.372-10.77,11.7,11.7,0,0,0-9.584-5h-.055a2.838,2.838,0,0,0-2.576,1.67l-8.067,18.144Zm36.08,31.138h-24.758V33.533l7.7-17.323a5.99,5.99,0,0,1,3.678,3.078,5.991,5.991,0,0,1,.228,4.791l-1.5,4.048a5.662,5.662,0,0,0,.65,5.2,5.666,5.666,0,0,0,4.644,2.438h12.914a2.822,2.822,0,0,1,2.174,1.019,2.825,2.825,0,0,1,.651,2.321l-3.595,19.814A2.831,2.831,0,0,1-791.135,61.245Zm-30.419,0h-5.661a2.834,2.834,0,0,1-2.831-2.83V38.6a2.834,2.834,0,0,1,2.831-2.83h5.661V61.244Z" transform="translate(861.5 -0.5)" fill="rgba(240,114,41,0.95)"/>
</svg>
